<svg width="981" height="771" viewBox="0 0 981 771" fill="none" xmlns="http://www.w3.org/2000/svg">
<g clip-path="url(#clip0)">
<path d="M740.291 138.988V84.5478C723.379 80.6638 707.458 73.3081 693.539 62.9469C679.62 52.5858 668.005 39.4454 659.432 24.3589L659.431 24.3599C655.318 27.4096 650.331 29.0509 645.211 29.0399H601.982C613.517 57.7899 632.334 83.0441 656.583 102.321C680.833 121.598 709.68 134.234 740.291 138.988Z" fill="#3F3D56"/>
<path d="M740.291 81.4278V29.13C740.292 25.3043 739.539 21.5158 738.076 17.9811C736.612 14.4463 734.467 11.2346 731.761 8.52941C729.056 5.82421 725.844 3.67855 722.31 2.21504C718.775 0.751538 714.987 -0.00113621 711.161 3.18751e-05H669.191V5.05003C669.195 8.28895 668.542 11.495 667.27 14.4738C665.998 17.4526 664.134 20.142 661.792 22.3789C670.084 37.1128 681.341 49.9673 694.852 60.1308C708.364 70.2943 723.835 77.5459 740.291 81.4278Z" fill="#3F3D56"/>
<path d="M538.402 29.04H511.371C505.01 29.0381 498.91 26.5097 494.413 22.0108C489.916 17.5119 487.39 11.411 487.391 5.04997V-3.0412e-05H448.011C444.185 -0.00035614 440.397 0.752894 436.863 2.2167C433.329 3.6805 430.117 5.82619 427.412 8.53123C424.707 11.2363 422.561 14.4477 421.098 17.982C419.634 21.5164 418.881 25.3045 418.881 29.13V677.33C418.877 681.156 419.628 684.944 421.09 688.479C422.553 692.014 424.699 695.226 427.405 697.93C430.111 700.634 433.324 702.778 436.86 704.238C440.396 705.698 444.185 706.447 448.011 706.44H711.161C712.361 706.443 713.56 706.369 714.751 706.22C721.796 705.341 728.279 701.921 732.981 696.602C737.684 691.283 740.283 684.43 740.291 677.33V200.158C644.582 189.068 564.833 120.779 538.402 29.04Z" fill="#3F3D56"/>
<path d="M598.702 29.04H541.562C567.863 119.079 646.242 186.068 740.291 197.108V142.088C708.862 137.282 679.244 124.313 654.398 104.475C629.551 84.6367 610.346 58.6254 598.702 29.04Z" fill="#3F3D56"/>
<path opacity="0.1" d="M689.068 119.572C705.759 119.572 719.29 106.041 719.29 89.3493C719.29 72.658 705.759 59.127 689.068 59.127C672.377 59.127 658.846 72.658 658.846 89.3493C658.846 106.041 672.377 119.572 689.068 119.572Z" fill="black"/>
<path opacity="0.1" d="M615.594 293.079C632.285 293.079 645.816 279.548 645.816 262.856C645.816 246.165 632.285 232.634 615.594 232.634C598.903 232.634 585.372 246.165 585.372 262.856C585.372 279.548 598.903 293.079 615.594 293.079Z" fill="black"/>
<path opacity="0.1" d="M523.918 335.308C540.61 335.308 554.141 321.777 554.141 305.086C554.141 288.394 540.61 274.863 523.918 274.863C507.227 274.863 493.696 288.394 493.696 305.086C493.696 321.777 507.227 335.308 523.918 335.308Z" fill="black"/>
<path opacity="0.1" d="M600.13 454.426C616.821 454.426 630.352 440.895 630.352 424.203C630.352 407.512 616.821 393.981 600.13 393.981C583.439 393.981 569.908 407.512 569.908 424.203C569.908 440.895 583.439 454.426 600.13 454.426Z" fill="black"/>
<path d="M707 491.961H453V541.961H707V491.961Z" fill="#FFFF00"/>
<path d="M582.5 202.094C553.793 202.097 526.115 212.789 504.862 232.087C483.609 251.385 470.303 277.905 467.537 306.479C464.772 335.052 472.745 363.632 489.904 386.647C507.062 409.662 532.175 425.463 560.349 430.971C560.558 431.012 560.77 431.053 560.982 431.091C564.308 431.721 567.683 432.203 571.108 432.537C571.32 432.56 571.529 432.582 571.741 432.598C575.076 432.908 578.452 433.072 581.867 433.091C582.079 433.094 582.288 433.094 582.5 433.094C585.911 433.094 589.286 432.948 592.626 432.654C592.838 432.639 593.047 432.62 593.259 432.598C596.68 432.284 600.055 431.821 603.385 431.208C603.597 431.17 603.809 431.132 604.018 431.091C632.277 425.731 657.519 410.02 674.807 387.033C692.095 364.045 700.184 335.435 697.493 306.798C694.803 278.162 681.525 251.559 660.257 232.195C638.99 212.83 611.263 202.097 582.5 202.094H582.5Z" fill="#FFFF00"/>
<path d="M693 317.594C692.998 343.33 684.015 368.259 667.601 388.081C651.187 407.904 628.371 421.377 603.086 426.178C602.887 426.217 602.684 426.254 602.481 426.29C599.299 426.874 596.07 427.317 592.793 427.619C592.59 427.64 592.391 427.658 592.188 427.674C588.997 427.952 585.768 428.092 582.5 428.094C582.297 428.094 582.097 428.094 581.895 428.091C578.631 428.076 575.402 427.919 572.207 427.619C572.004 427.604 571.804 427.583 571.601 427.562C568.329 427.244 565.099 426.782 561.914 426.178C561.711 426.142 561.508 426.102 561.308 426.063C540.747 422.047 521.751 412.27 506.535 397.871C491.319 383.472 480.508 365.044 475.365 344.736C470.221 324.428 470.956 303.076 477.484 283.17C484.011 263.263 496.063 245.622 512.233 232.303C528.404 218.985 548.027 210.536 568.815 207.944C589.604 205.351 610.701 208.721 629.647 217.661C648.593 226.6 664.608 240.741 675.825 258.434C687.042 276.128 692.998 296.645 693 317.594Z" fill="#3F3D56"/>
<path d="M566.879 409.563C565.958 409.563 565.057 409.29 564.291 408.778C563.525 408.266 562.928 407.538 562.575 406.687C562.222 405.835 562.13 404.899 562.31 403.995C562.49 403.091 562.933 402.261 563.585 401.609C564.236 400.958 565.067 400.514 565.97 400.334C566.874 400.155 567.811 400.247 568.662 400.599C569.513 400.952 570.241 401.549 570.753 402.315C571.265 403.082 571.538 403.982 571.538 404.904C571.537 406.139 571.045 407.323 570.172 408.197C569.299 409.07 568.114 409.561 566.879 409.563ZM566.879 401.177C566.142 401.177 565.421 401.395 564.809 401.805C564.196 402.214 563.718 402.796 563.436 403.477C563.154 404.158 563.08 404.908 563.224 405.631C563.367 406.354 563.722 407.018 564.244 407.539C564.765 408.061 565.429 408.416 566.152 408.559C566.875 408.703 567.625 408.629 568.306 408.347C568.987 408.065 569.569 407.587 569.978 406.975C570.388 406.362 570.606 405.641 570.606 404.904C570.605 403.916 570.212 402.968 569.514 402.269C568.815 401.571 567.867 401.178 566.879 401.177Z" fill="#FFFF00"/>
<path d="M583.432 282.652H582.5V420.792H583.432V282.652Z" fill="#FFFF00"/>
<path d="M583.432 223.436H582.5V264.19H583.432V223.436Z" fill="#FFFF00"/>
<path d="M535.444 268.441H534.512V406.646H535.444V268.441Z" fill="#FFFF00"/>
<path d="M601.136 268.441H600.204V406.646H601.136V268.441Z" fill="#FFFF00"/>
<path d="M551.284 253.067H550.353V381.352H551.284V253.067Z" fill="#FFFF00"/>
<path d="M567.345 218.076H566.414V396.052H567.345V218.076Z" fill="#FFFF00"/>
<path d="M614.647 224.646H613.716V252.34H614.647V224.646Z" fill="#FFFF00"/>
<path d="M614.647 270.83H613.716V397.497H614.647V270.83Z" fill="#FFFF00"/>
<path d="M630.488 251.203H629.556V267.51H630.488V251.203Z" fill="#FFFF00"/>
<path d="M630.488 285.797H629.556V366.799H630.488V285.797Z" fill="#FFFF00"/>
<path d="M630.488 383.351H629.556V397.497H630.488V383.351Z" fill="#FFFF00"/>
<path d="M550.818 394.702C549.897 394.702 548.996 394.428 548.23 393.916C547.464 393.404 546.867 392.677 546.514 391.826C546.161 390.974 546.069 390.037 546.249 389.134C546.429 388.23 546.872 387.4 547.524 386.748C548.176 386.097 549.006 385.653 549.91 385.473C550.813 385.293 551.75 385.386 552.601 385.738C553.453 386.091 554.18 386.688 554.692 387.454C555.204 388.22 555.477 389.121 555.477 390.043C555.476 391.278 554.985 392.462 554.111 393.335C553.238 394.209 552.054 394.7 550.818 394.702Z" fill="#FFFF00"/>
<path d="M582.5 277.294C581.579 277.294 580.678 277.02 579.912 276.508C579.145 275.997 578.548 275.269 578.196 274.418C577.843 273.566 577.751 272.629 577.931 271.726C578.11 270.822 578.554 269.992 579.206 269.34C579.857 268.689 580.687 268.245 581.591 268.065C582.495 267.885 583.432 267.978 584.283 268.33C585.134 268.683 585.862 269.28 586.374 270.046C586.886 270.812 587.159 271.713 587.159 272.635C587.158 273.87 586.666 275.054 585.793 275.928C584.919 276.801 583.735 277.292 582.5 277.294ZM582.5 268.907C581.763 268.907 581.042 269.126 580.429 269.536C579.816 269.945 579.339 270.527 579.057 271.208C578.774 271.889 578.701 272.639 578.844 273.362C578.988 274.085 579.343 274.749 579.864 275.27C580.386 275.791 581.05 276.146 581.773 276.29C582.496 276.434 583.245 276.36 583.926 276.078C584.607 275.796 585.19 275.318 585.599 274.705C586.009 274.092 586.227 273.372 586.227 272.635C586.226 271.646 585.833 270.699 585.134 270C584.436 269.302 583.488 268.908 582.5 268.907Z" fill="#FFFF00"/>
<path d="M582.966 223.715C582.044 223.715 581.144 223.441 580.377 222.929C579.611 222.418 579.014 221.69 578.662 220.839C578.309 219.987 578.217 219.05 578.396 218.147C578.576 217.243 579.02 216.413 579.671 215.761C580.323 215.11 581.153 214.666 582.057 214.486C582.961 214.306 583.898 214.399 584.749 214.751C585.6 215.104 586.328 215.701 586.84 216.467C587.352 217.233 587.625 218.134 587.625 219.056C587.623 220.291 587.132 221.475 586.259 222.348C585.385 223.222 584.201 223.713 582.966 223.715ZM582.966 215.328C582.229 215.328 581.508 215.547 580.895 215.957C580.282 216.366 579.804 216.948 579.522 217.629C579.24 218.31 579.166 219.06 579.31 219.783C579.454 220.506 579.809 221.17 580.33 221.691C580.852 222.212 581.516 222.567 582.239 222.711C582.962 222.855 583.711 222.781 584.392 222.499C585.073 222.217 585.655 221.739 586.065 221.126C586.475 220.513 586.693 219.793 586.693 219.056C586.692 218.067 586.299 217.12 585.6 216.421C584.901 215.723 583.954 215.329 582.966 215.328Z" fill="#FFFF00"/>
<path d="M630.022 379.793C629.101 379.793 628.2 379.519 627.434 379.007C626.668 378.495 626.071 377.768 625.718 376.917C625.365 376.065 625.273 375.128 625.453 374.225C625.633 373.321 626.076 372.491 626.728 371.839C627.379 371.188 628.21 370.744 629.113 370.564C630.017 370.384 630.954 370.477 631.805 370.829C632.657 371.182 633.384 371.779 633.896 372.545C634.408 373.311 634.681 374.212 634.681 375.134C634.68 376.369 634.189 377.553 633.315 378.426C632.442 379.3 631.258 379.791 630.022 379.793ZM630.022 371.406C629.285 371.406 628.565 371.625 627.952 372.034C627.339 372.444 626.861 373.026 626.579 373.707C626.297 374.388 626.223 375.138 626.367 375.861C626.51 376.584 626.865 377.248 627.387 377.769C627.908 378.29 628.572 378.645 629.295 378.789C630.018 378.933 630.768 378.859 631.449 378.577C632.13 378.295 632.712 377.817 633.121 377.204C633.531 376.591 633.75 375.871 633.75 375.134C633.748 374.145 633.355 373.198 632.657 372.499C631.958 371.801 631.01 371.407 630.022 371.406Z" fill="#FFFF00"/>
<path d="M534.978 262.385C534.056 262.385 533.156 262.111 532.389 261.6C531.623 261.088 531.026 260.36 530.674 259.509C530.321 258.657 530.229 257.721 530.408 256.817C530.588 255.913 531.032 255.083 531.683 254.431C532.335 253.78 533.165 253.336 534.069 253.156C534.973 252.976 535.909 253.069 536.761 253.421C537.612 253.774 538.34 254.371 538.852 255.137C539.364 255.903 539.637 256.804 539.637 257.726C539.635 258.961 539.144 260.145 538.271 261.019C537.397 261.892 536.213 262.383 534.978 262.385Z" fill="#FFFF00"/>
<path d="M630.022 281.487C629.101 281.487 628.2 281.214 627.434 280.702C626.668 280.19 626.071 279.462 625.718 278.611C625.365 277.759 625.273 276.823 625.453 275.919C625.633 275.015 626.076 274.185 626.728 273.533C627.379 272.882 628.21 272.438 629.113 272.258C630.017 272.079 630.954 272.171 631.805 272.523C632.657 272.876 633.384 273.473 633.896 274.239C634.408 275.006 634.681 275.906 634.681 276.828C634.68 278.063 634.189 279.247 633.315 280.121C632.442 280.994 631.258 281.485 630.022 281.487ZM630.022 273.101C629.285 273.101 628.565 273.319 627.952 273.729C627.339 274.138 626.861 274.72 626.579 275.401C626.297 276.082 626.223 276.832 626.367 277.555C626.51 278.278 626.865 278.942 627.387 279.463C627.908 279.985 628.572 280.34 629.295 280.483C630.018 280.627 630.768 280.553 631.449 280.271C632.13 279.989 632.712 279.511 633.121 278.899C633.531 278.286 633.75 277.565 633.75 276.828C633.748 275.84 633.355 274.892 632.657 274.193C631.958 273.495 631.01 273.102 630.022 273.101Z" fill="#FFFF00"/>
<path d="M614.181 265.646C613.26 265.646 612.359 265.373 611.593 264.861C610.827 264.349 610.23 263.621 609.877 262.77C609.524 261.919 609.432 260.982 609.612 260.078C609.792 259.174 610.235 258.344 610.887 257.693C611.539 257.041 612.369 256.597 613.273 256.418C614.176 256.238 615.113 256.33 615.964 256.683C616.816 257.035 617.543 257.632 618.055 258.399C618.567 259.165 618.84 260.066 618.84 260.987C618.839 262.222 618.348 263.406 617.474 264.28C616.601 265.153 615.417 265.645 614.181 265.646Z" fill="#FFFF00"/>
</g>
<defs>
<clipPath id="clip0">
<rect width="980.48" height="770.906" fill="white"/>
</clipPath>
</defs>
</svg>
