<?xml version="1.0" standalone="no"?>
<!DOCTYPE svg PUBLIC "-//W3C//DTD SVG 20010904//EN"
 "http://www.w3.org/TR/2001/REC-SVG-20010904/DTD/svg10.dtd">
<svg version="1.0" xmlns="http://www.w3.org/2000/svg"
 width="300.000000pt" height="140.000000pt" viewBox="0 0 300.000000 140.000000"
 preserveAspectRatio="xMidYMid meet">
<metadata>
Created by potrace 1.16, written by Peter Selinger 2001-2019
</metadata>
<g transform="translate(0.000000,140.000000) scale(0.100000,-0.100000)"
fill="#000000" stroke="none">
<path d="M150 705 l0 -545 1345 0 1345 0 0 545 0 545 -1345 0 -1345 0 0 -545z
m2630 -5 l0 -490 -1280 0 -1280 0 0 490 0 490 1280 0 1280 0 0 -490z"/>
<path d="M455 825 c-60 -16 -118 -74 -135 -133 -6 -25 -9 -117 -8 -234 l3
-193 28 -3 27 -3 0 117 0 117 23 -20 c48 -44 115 -60 179 -43 94 25 147 98
148 201 0 141 -123 232 -265 194z m141 -76 c65 -39 82 -141 36 -206 -29 -41
-91 -67 -137 -59 -47 9 -102 59 -114 104 -21 73 25 160 95 182 37 11 80 3 120
-21z"/>
<path d="M957 826 c-20 -8 -43 -19 -51 -25 -11 -9 -15 -7 -19 9 -3 14 -13 20
-31 20 l-26 0 0 -201 0 -200 28 3 27 3 5 141 c4 121 8 145 24 163 22 24 89 45
118 37 49 -12 69 37 22 54 -33 13 -51 12 -97 -4z"/>
<path d="M1511 829 c-18 -6 -44 -17 -57 -26 -23 -14 -24 -14 -24 7 0 17 -5 21
-27 18 l-28 -3 0 -195 0 -195 28 -3 27 -3 0 113 c0 62 5 130 10 150 19 67 102
100 176 70 53 -22 64 -55 64 -189 0 -65 4 -124 9 -131 4 -8 19 -12 32 -10 24
3 24 3 24 144 0 135 -1 142 -27 181 -41 63 -132 94 -207 72z"/>
<path d="M2001 829 c-92 -18 -153 -97 -154 -198 -1 -110 61 -187 165 -205 49
-9 119 10 151 40 l27 25 0 -27 c0 -36 -26 -85 -57 -108 -15 -11 -48 -21 -77
-23 -51 -4 -54 -3 -130 51 -53 38 -77 -10 -28 -57 80 -76 219 -77 296 0 16 15
36 44 44 63 20 48 27 211 12 284 -24 117 -125 180 -249 155z m127 -75 c44 -29
63 -73 59 -137 -3 -46 -9 -63 -32 -87 -60 -62 -150 -62 -210 0 -52 54 -45 160
13 213 42 38 120 43 170 11z"/>
<path d="M2505 833 c-11 -2 -30 -6 -42 -8 -12 -3 -36 -17 -54 -32 -93 -79 -91
-255 5 -328 64 -49 175 -54 239 -11 68 46 35 84 -40 46 -74 -37 -151 -16 -193
53 -35 56 -34 56 138 59 153 3 157 4 160 25 9 59 -40 149 -97 177 -31 16 -88
25 -116 19z m78 -67 c33 -14 58 -43 71 -83 l7 -23 -130 0 c-72 0 -131 3 -131
8 0 19 43 74 72 92 39 23 67 25 111 6z"/>
<path d="M1174 817 c-2 -7 -3 -96 -2 -197 l3 -185 24 -3 c13 -2 28 2 32 10 10
15 12 348 3 372 -7 19 -53 21 -60 3z"/>
</g>
</svg>
