<?xml version="1.0" standalone="no"?>
<!DOCTYPE svg PUBLIC "-//W3C//DTD SVG 20010904//EN"
 "http://www.w3.org/TR/2001/REC-SVG-20010904/DTD/svg10.dtd">
<svg version="1.0" xmlns="http://www.w3.org/2000/svg"
 width="433.000000pt" height="577.000000pt" viewBox="0 0 433.000000 577.000000"
 preserveAspectRatio="xMidYMid meet">

<g transform="translate(0.000000,577.000000) scale(0.100000,-0.100000)"
fill="#000000" stroke="none">
<path fill='white' d="M577 4939 c-20 -11 -49 -39 -64 -62 l-28 -42 -6 -490 c-4 -269 -8
-1192 -10 -2051 l-4 -1560 28 -37 c36 -48 67 -68 120 -78 23 -4 574 -8 1225
-9 1299 -1 1211 -5 1266 60 14 17 30 48 35 68 6 23 14 812 21 2051 l10 2014
-21 44 c-13 27 -38 55 -62 71 l-41 27 -465 6 c-256 4 -803 7 -1216 8 -729 0
-751 0 -788 -20z m1593 -378 c0 -5 -7 -12 -16 -15 -10 -4 -14 -16 -12 -38 l3
-33 194 -3 c134 -2 198 1 207 9 22 18 17 55 -8 67 -18 8 25 11 175 11 222 1
253 -5 287 -61 19 -32 20 -49 20 -628 0 -327 -5 -1106 -10 -1730 l-10 -1134
-23 -33 c-12 -18 -35 -37 -51 -43 -32 -11 -869 -12 -1740 -1 l-518 6 -35 40
-36 40 7 1645 c3 905 9 1688 13 1740 6 94 6 95 45 132 l38 38 735 0 c426 0
735 -4 735 -9z m195 -46 c6 -2 -11 -4 -37 -4 -27 -1 -48 3 -48 7 0 7 62 5 85
-3z m37 -17 c-9 -9 -12 -7 -12 12 0 19 3 21 12 12 9 -9 9 -15 0 -24z"/>
<path  d="M1113 4543 c9 -2 23 -2 30 0 6 3 -1 5 -18 5 -16 0 -22 -2 -12 -5z"/>
<path fill='white' d="M2382 4408 c-14 -14 -15 -37 -3 -57 12 -18 358 -29 390 -11 23 12 28
49 9 68 -17 17 -379 17 -396 0z m292 -39 c-9 -16 -20 -10 -21 12 -2 17 1 18
12 9 8 -7 12 -16 9 -21z m-44 5 c0 -13 -142 -12 -147 2 -2 5 31 9 72 9 48 0
75 -4 75 -11z"/>
<path d="M2188 4269 c-24 -13 -23 -56 1 -69 29 -15 374 -13 389 2 18 18 14 56
-7 68 -26 13 -360 13 -383 -1z m227 -29 c34 -1 37 -3 18 -10 -12 -5 -32 -7
-45 -4 -20 5 -61 6 -86 3 -20 -3 -43 2 -39 9 5 6 31 7 152 2z m70 1 c3 -5 1
-12 -5 -16 -5 -3 -10 1 -10 9 0 18 6 21 15 7z"/>
<path d="M771 3810 c-53 -23 -51 0 -47 -645 2 -330 0 -550 -4 -490 -6 96 -7
84 -7 -93 1 -125 5 -211 11 -225 7 -13 31 -29 61 -39 43 -15 85 -17 310 -15
237 2 263 4 300 22 34 17 41 26 47 60 4 22 7 341 7 708 l1 668 -25 24 c-23 24
-31 25 -133 25 -60 0 -196 2 -303 5 -124 3 -203 2 -218 -5z m131 -47 l13 -28
167 -3 167 -2 17 25 c14 21 24 25 64 25 71 0 95 -32 88 -116 l-3 -39 -72 -3
-73 -3 0 -277 c0 -203 -3 -281 -12 -290 -9 -9 -9 -12 0 -12 9 0 12 -69 12
-280 l0 -279 68 -3 67 -3 3 -41 c2 -29 -3 -47 -18 -67 l-21 -27 -284 0 c-281
0 -284 0 -310 23 l-27 23 1 673 c2 488 5 678 13 691 16 26 46 39 90 39 31 1
39 -4 50 -26z"/>
<path d="M806 3563 c-14 -14 -24 -28 -21 -32 3 -3 20 9 38 27 17 18 27 32 21
32 -6 0 -23 -12 -38 -27z"/>
<path d="M840 3530 c0 -5 5 -10 11 -10 5 0 7 5 4 10 -3 6 -8 10 -11 10 -2 0
-4 -4 -4 -10z"/>
<path d="M1030 3195 c-37 -19 -53 -22 -87 -16 -26 5 -46 4 -52 -2 -18 -18 -13
-25 17 -29 31 -3 32 -15 8 -70 l-16 -38 37 0 c31 0 43 6 65 34 15 19 39 36 57
39 30 6 111 77 111 97 0 19 -94 10 -140 -15z"/>
<path d="M1191 3126 c-7 -8 -22 -13 -34 -12 -13 2 -28 -3 -35 -11 -15 -16 -9
-16 40 -3 20 6 39 17 42 25 7 19 2 19 -13 1z"/>
<path d="M1621 3795 c-2 -35 52 -44 57 -9 3 16 1 17 -7 4 -9 -12 -11 -12 -11
-1 0 10 -3 11 -14 2 -11 -9 -15 -9 -19 1 -3 7 -6 9 -6 3z"/>
<path d="M1700 3780 c0 -11 7 -20 15 -20 8 0 15 5 15 10 0 6 -6 10 -12 10 -9
0 -8 4 2 10 13 8 12 10 -2 10 -11 0 -18 -8 -18 -20z"/>
<path d="M1790 3783 c0 -16 6 -23 20 -23 14 0 20 7 20 23 0 18 -2 19 -10 7 -9
-13 -11 -13 -20 0 -8 12 -10 11 -10 -7z"/>
<path d="M1860 3780 c-9 -18 -8 -20 15 -20 23 0 24 2 15 20 -6 11 -13 20 -15
20 -2 0 -9 -9 -15 -20z"/>
<path d="M1915 3783 c3 -8 5 -18 5 -21 0 -8 20 20 20 29 0 3 -7 6 -15 6 -10 0
-14 -6 -10 -14z"/>
<path d="M1990 3785 c0 -14 6 -21 20 -21 14 0 20 7 20 21 0 17 -2 17 -10 5 -9
-13 -11 -13 -20 0 -8 12 -10 12 -10 -5z"/>
<path d="M2061 3781 c-10 -18 -9 -21 9 -21 22 0 25 7 11 29 -7 11 -11 9 -20
-8z"/>
<path d="M2170 3775 c0 -16 6 -25 15 -25 12 0 13 4 5 19 -7 14 -6 21 3 24 7 3
5 6 -5 6 -13 1 -18 -7 -18 -24z"/>
<path d="M2258 3775 c2 -14 6 -25 7 -25 1 0 5 11 7 25 3 16 1 25 -7 25 -8 0
-10 -9 -7 -25z"/>
<path d="M2303 3784 c-8 -21 13 -42 28 -27 13 13 5 43 -11 43 -6 0 -13 -7 -17
-16z m27 -10 c0 -8 -4 -12 -10 -9 -5 3 -10 10 -10 16 0 5 5 9 10 9 6 0 10 -7
10 -16z"/>
<path d="M2398 3794 c-8 -7 3 -44 13 -44 13 0 20 18 9 25 -6 4 -8 11 -5 16 7
10 -8 13 -17 3z"/>
<path d="M2453 3784 c-8 -21 13 -42 28 -27 13 13 5 43 -11 43 -6 0 -13 -7 -17
-16z m27 -9 c0 -8 -4 -15 -10 -15 -5 0 -10 7 -10 15 0 8 5 15 10 15 6 0 10 -7
10 -15z"/>
<path d="M2514 3785 c-3 -8 -3 -19 1 -25 8 -13 35 -13 35 0 0 6 -4 9 -9 8 -5
-2 -8 2 -7 7 0 6 5 9 9 7 5 -1 6 2 2 8 -9 15 -25 12 -31 -5z"/>
<path d="M2612 3780 c-16 -26 -16 -25 13 -26 22 -2 23 0 13 20 -6 11 -11 22
-12 23 -1 1 -7 -7 -14 -17z"/>
<path d="M2117 3772 c1 -8 3 -16 3 -18 0 -3 5 -2 10 1 6 3 10 14 10 23 0 13
-2 14 -9 3 -5 -7 -11 -9 -13 -5 -3 5 -3 3 -1 -4z"/>
<path d="M2572 3770 c0 -14 2 -19 5 -12 2 6 2 18 0 25 -3 6 -5 1 -5 -13z"/>
<path d="M2670 3770 c0 -11 4 -20 9 -20 5 0 7 9 4 20 -3 11 -7 20 -9 20 -2 0
-4 -9 -4 -20z"/>
<path d="M1627 3714 c-15 -15 -7 -45 11 -42 9 2 17 12 17 22 0 20 -16 31 -28
20z m23 -20 c0 -8 -4 -12 -10 -9 -5 3 -10 10 -10 16 0 5 5 9 10 9 6 0 10 -7
10 -16z"/>
<path d="M1715 3711 c-3 -5 -1 -12 5 -16 6 -4 8 -11 5 -16 -4 -5 -2 -9 4 -9
15 0 23 18 11 25 -6 4 -8 11 -5 16 4 5 2 9 -4 9 -5 0 -12 -4 -16 -9z"/>
<path d="M1771 3713 c0 -5 4 -17 8 -28 7 -17 8 -17 13 8 4 19 1 27 -8 27 -8 0
-14 -3 -13 -7z"/>
<path d="M1680 3689 c0 -11 5 -17 10 -14 6 3 10 13 10 21 0 8 -4 14 -10 14 -5
0 -10 -9 -10 -21z"/>
<path d="M1817 3691 c-3 -14 0 -17 14 -14 11 3 19 12 19 19 0 21 -27 17 -33
-5z"/>
<path d="M1880 3695 c0 -9 4 -14 9 -11 5 4 12 0 15 -6 3 -7 5 -4 3 6 -3 24
-27 34 -27 11z"/>
<path d="M1941 3693 c-1 -16 5 -23 17 -23 10 0 13 3 6 8 -6 4 -14 14 -17 22
-4 10 -6 8 -6 -7z"/>
<path d="M2000 3691 c0 -12 6 -21 14 -21 17 0 15 32 -2 38 -7 2 -12 -6 -12
-17z"/>
<path d="M2080 3688 c0 -10 7 -18 15 -18 8 0 15 8 15 18 0 10 -7 19 -15 19 -8
0 -15 -9 -15 -19z"/>
<path d="M2141 3692 c-1 -30 32 -27 37 3 3 20 3 20 -9 0 -12 -19 -12 -19 -20
0 -7 18 -8 18 -8 -3z"/>
<path d="M2207 3690 c3 -11 7 -20 9 -20 2 0 4 9 4 20 0 11 -4 20 -9 20 -5 0
-7 -9 -4 -20z"/>
<path d="M2280 3688 c0 -21 16 -24 23 -5 4 10 6 10 6 0 1 -20 18 -15 24 6 4
15 -1 18 -24 17 -21 0 -29 -6 -29 -18z"/>
<path d="M2360 3691 c0 -12 6 -21 14 -21 17 0 15 32 -2 38 -7 2 -12 -6 -12
-17z"/>
<path d="M2440 3687 c0 -16 3 -17 14 -8 11 9 15 9 19 -1 3 -7 6 -4 6 7 1 14
-5 21 -19 21 -13 0 -20 -7 -20 -19z"/>
<path d="M2507 3690 c-4 -15 0 -20 14 -20 21 0 22 1 13 24 -8 22 -21 20 -27
-4z"/>
<path d="M2563 3696 c3 -24 27 -34 27 -11 0 9 -4 14 -9 11 -5 -4 -12 0 -15 6
-3 7 -5 4 -3 -6z"/>
<path d="M2620 3690 c0 -11 6 -20 13 -20 7 0 13 9 13 20 0 11 -6 20 -13 20 -7
0 -13 -9 -13 -20z"/>
<path d="M1621 3607 c0 -12 3 -16 6 -9 4 10 8 10 19 1 11 -9 14 -8 14 8 0 12
-8 19 -20 20 -15 1 -20 -4 -19 -20z"/>
<path d="M1680 3610 c0 -11 7 -20 15 -20 8 0 15 9 15 20 0 11 -7 20 -15 20 -8
0 -15 -9 -15 -20z"/>
<path d="M1743 3617 c2 -20 19 -25 26 -6 2 6 -1 9 -7 5 -6 -3 -13 0 -16 6 -3
7 -5 5 -3 -5z"/>
<path d="M1800 3610 c0 -11 6 -20 13 -20 7 0 13 9 13 20 0 11 -6 20 -13 20 -7
0 -13 -9 -13 -20z"/>
<path d="M1850 3610 c0 -20 19 -23 32 -5 9 12 0 25 -18 25 -8 0 -14 -9 -14
-20z"/>
<path d="M1940 3610 c0 -11 7 -20 15 -20 8 0 15 9 15 20 0 11 -7 20 -15 20 -8
0 -15 -9 -15 -20z"/>
<path d="M2000 3610 c0 -12 7 -20 16 -20 13 0 14 3 5 14 -9 11 -9 15 1 19 8 4
7 6 -4 6 -12 1 -18 -6 -18 -19z"/>
<path d="M2050 3610 c0 -11 7 -20 15 -20 8 0 15 5 15 10 0 6 -6 10 -12 10 -9
0 -8 4 2 10 13 8 12 10 -2 10 -11 0 -18 -8 -18 -20z"/>
<path d="M2100 3613 c0 -12 7 -19 20 -19 14 0 20 7 19 21 0 11 -3 14 -6 7 -4
-10 -8 -10 -19 -1 -11 9 -14 8 -14 -8z"/>
<path d="M2195 3620 c-9 -15 4 -30 23 -29 15 1 15 2 0 6 -10 2 -18 8 -18 13 0
5 8 11 18 13 15 4 15 5 0 6 -9 0 -20 -3 -23 -9z"/>
<path d="M2251 3613 c-1 -16 5 -23 17 -23 10 0 13 3 6 8 -6 4 -14 14 -17 22
-4 10 -6 8 -6 -7z"/>
<path d="M2305 3620 c-9 -15 4 -30 23 -29 15 1 15 2 0 6 -10 2 -18 9 -18 15 0
5 7 8 15 4 8 -3 15 -1 15 4 0 13 -27 13 -35 0z"/>
<path d="M2370 3610 c0 -11 7 -20 15 -20 8 0 15 5 15 10 0 6 -5 10 -11 10 -5
0 -7 5 -4 10 3 6 1 10 -4 10 -6 0 -11 -9 -11 -20z"/>
<path d="M2420 3605 c0 -16 6 -25 15 -25 8 0 15 7 15 15 0 8 -6 15 -12 15 -9
0 -8 4 2 10 13 8 12 10 -2 10 -13 0 -18 -8 -18 -25z"/>
<path d="M2477 3623 c-14 -13 -6 -33 13 -33 13 0 20 7 20 20 0 19 -20 27 -33
13z"/>
<path d="M2390 3450 c0 -5 5 -10 10 -10 6 0 10 5 10 10 0 6 -4 10 -10 10 -5 0
-10 -4 -10 -10z"/>
<path d="M2515 3450 c-3 -5 -1 -10 4 -10 6 0 11 5 11 10 0 6 -2 10 -4 10 -3 0
-8 -4 -11 -10z"/>
<path d="M2550 3450 c0 -5 5 -10 11 -10 5 0 7 5 4 10 -3 6 -8 10 -11 10 -2 0
-4 -4 -4 -10z"/>
<path d="M2660 3450 c0 -5 5 -10 11 -10 5 0 7 5 4 10 -3 6 -8 10 -11 10 -2 0
-4 -4 -4 -10z"/>
<path d="M2760 3450 c0 -5 5 -10 10 -10 6 0 10 5 10 10 0 6 -4 10 -10 10 -5 0
-10 -4 -10 -10z"/>
<path d="M2090 3405 c0 -8 2 -15 4 -15 2 0 6 7 10 15 3 8 1 15 -4 15 -6 0 -10
-7 -10 -15z"/>
<path d="M2155 3411 c-6 -11 13 -26 22 -17 4 3 1 6 -6 6 -7 0 -9 5 -6 10 3 6
4 10 1 10 -3 0 -7 -4 -11 -9z"/>
<path d="M2190 3405 c0 -8 4 -15 8 -15 5 0 9 7 9 15 0 8 -4 15 -9 15 -4 0 -8
-7 -8 -15z"/>
<path d="M2220 3411 c0 -6 4 -12 8 -15 5 -3 9 1 9 9 0 8 -4 15 -9 15 -4 0 -8
-4 -8 -9z"/>
<path d="M2327 3404 c6 -16 19 -18 27 -5 3 5 -3 11 -13 14 -14 3 -18 1 -14 -9z"/>
<path d="M2423 3405 c0 -8 4 -15 9 -15 4 0 8 4 8 9 0 6 -4 12 -8 15 -5 3 -9
-1 -9 -9z"/>
<path d="M2457 3413 c-10 -9 -9 -23 1 -23 5 0 9 7 9 15 0 17 -1 18 -10 8z"/>
<path d="M2545 3400 c3 -5 10 -10 16 -10 5 0 9 5 9 10 0 6 -7 10 -16 10 -8 0
-12 -4 -9 -10z"/>
<path d="M2615 3400 c3 -5 8 -10 11 -10 2 0 4 5 4 10 0 6 -5 10 -11 10 -5 0
-7 -4 -4 -10z"/>
<path d="M2690 3400 c0 -5 5 -10 10 -10 6 0 10 5 10 10 0 6 -4 10 -10 10 -5 0
-10 -4 -10 -10z"/>
<path d="M2725 3400 c-3 -5 1 -10 10 -10 9 0 13 5 10 10 -3 6 -8 10 -10 10 -2
0 -7 -4 -10 -10z"/>
<path d="M2760 3400 c0 -5 5 -10 11 -10 5 0 7 5 4 10 -3 6 -8 10 -11 10 -2 0
-4 -4 -4 -10z"/>
<path d="M1840 3162 c-14 -4 -34 -12 -45 -19 -19 -11 -20 -26 -28 -465 -8
-508 -5 -964 7 -990 15 -33 77 -39 386 -36 328 3 328 3 335 64 1 16 6 324 10
684 8 696 6 727 -38 752 -16 10 -99 13 -312 15 -159 1 -301 -2 -315 -5z m115
-54 c10 -22 16 -23 170 -28 88 -3 168 -2 177 2 9 5 20 17 23 28 5 16 15 20 53
20 27 0 57 -7 70 -16 l22 -15 0 -683 c0 -676 0 -684 -21 -710 l-20 -26 -288 0
c-277 0 -289 1 -315 21 l-27 21 3 683 c3 655 4 684 22 704 15 16 31 21 70 21
44 0 53 -3 61 -22z"/>
<path d="M2030 3020 c0 -5 5 -10 10 -10 6 0 10 5 10 10 0 6 -4 10 -10 10 -5 0
-10 -4 -10 -10z"/>
<path d="M1866 2765 c7 -17 -11 -21 -19 -5 -3 6 -4 5 -3 -2 4 -19 30 -16 34 5
2 9 -1 17 -7 17 -6 0 -8 -7 -5 -15z"/>
<path d="M1844 2485 c-4 -9 -4 -19 0 -22 3 -4 6 1 6 11 0 9 5 14 10 11 6 -4 8
-11 5 -16 -4 -5 -1 -9 5 -9 15 0 9 32 -7 38 -7 2 -16 -4 -19 -13z"/>
<path d="M1860 2270 c0 -19 3 -21 12 -12 9 9 9 15 0 24 -9 9 -12 7 -12 -12z"/>
<path d="M1841 2264 c0 -11 3 -14 6 -6 3 7 2 16 -1 19 -3 4 -6 -2 -5 -13z"/>
<path d="M1841 2018 c-1 -22 18 -33 32 -19 8 8 8 14 -1 23 -9 9 -12 8 -13 -7
0 -19 -1 -19 -9 0 -7 16 -9 17 -9 3z"/>
<path d="M2078 1693 c34 -2 88 -2 120 0 31 2 3 3 -63 3 -66 0 -92 -1 -57 -3z"/>
<path d="M711 2904 c0 -11 3 -14 6 -6 3 7 2 16 -1 19 -3 4 -6 -2 -5 -13z"/>
<path d="M702 1815 c-1 -39 1 -45 8 -27 12 27 30 29 37 2 9 -36 23 -21 23 25
0 25 -4 45 -10 45 -5 0 -10 -7 -10 -15 0 -21 -38 -19 -43 3 -3 9 -5 -5 -5 -33z"/>
<path d="M840 1846 c-28 -35 11 -93 48 -70 21 14 28 64 10 75 -20 13 -44 11
-58 -5z m47 -22 c8 -21 -13 -42 -28 -27 -13 13 -5 43 11 43 6 0 13 -7 17 -16z"/>
<path d="M970 1841 c0 -11 5 -32 11 -48 l10 -28 20 25 19 25 6 -22 c4 -13 10
-23 15 -23 13 0 31 50 26 74 -3 20 -4 19 -15 -4 l-11 -25 -7 23 c-3 12 -10 22
-14 22 -4 0 -15 -10 -23 -22 -13 -19 -16 -20 -16 -6 -1 24 -21 33 -21 9z"/>
<path d="M700 1723 c0 -10 -3 -28 -6 -41 -6 -22 -4 -23 32 -20 37 3 39 5 39
38 0 32 -3 35 -32 38 -26 3 -33 0 -33 -15z m47 -19 c7 -18 -17 -38 -31 -24
-11 11 -1 40 14 40 6 0 13 -7 17 -16z"/>
<path d="M830 1721 c-20 -38 16 -76 58 -60 24 9 30 47 10 67 -18 18 -56 14
-68 -7z m57 -17 c3 -8 1 -20 -5 -26 -15 -15 -43 8 -35 28 7 19 32 18 40 -2z"/>
<path d="M970 1695 c0 -41 2 -45 24 -45 14 0 28 5 31 10 3 6 -3 10 -14 10 -12
0 -21 5 -21 10 0 6 7 10 15 10 21 0 19 18 -2 23 -14 4 -12 5 5 6 33 2 27 21
-8 21 -29 0 -30 -2 -30 -45z"/>
<path d="M1087 1733 c-14 -14 -6 -33 21 -48 l27 -16 -27 6 c-33 6 -38 -10 -7
-20 14 -5 27 -1 38 10 15 15 14 18 -9 37 -16 13 -18 19 -7 15 11 -4 17 -1 17
8 0 15 -40 21 -53 8z"/>
<path d="M1280 1695 c0 -28 4 -44 10 -40 6 3 10 21 10 40 0 19 -4 37 -10 40
-6 4 -10 -12 -10 -40z"/>
<path d="M1350 1730 c0 -5 4 -10 9 -10 6 0 11 -15 13 -32 2 -18 8 -33 13 -33
6 0 11 15 13 33 2 17 7 32 13 32 5 0 9 5 9 10 0 6 -16 10 -35 10 -19 0 -35 -4
-35 -10z"/>
<path d="M2028 1633 c61 -2 163 -2 225 0 61 1 11 3 -113 3 -124 0 -174 -2
-112 -3z"/>
<path d="M694 1604 c3 -9 9 -27 12 -40 7 -26 34 -33 34 -9 0 8 4 15 9 15 5 0
11 -7 15 -15 8 -22 24 -18 31 8 4 12 9 30 11 40 8 25 -11 21 -23 -5 l-10 -23
-7 23 c-4 12 -11 22 -16 22 -5 0 -12 -10 -16 -22 l-7 -23 -10 23 c-11 25 -33
31 -23 6z"/>
<path d="M872 1608 c-27 -27 -6 -68 35 -68 29 0 48 33 33 60 -12 22 -49 27
-68 8z m56 -25 c5 -17 -26 -29 -40 -15 -6 6 -7 15 -3 22 9 14 37 9 43 -7z"/>
<path d="M1000 1581 c0 -39 13 -55 23 -28 4 10 7 10 18 0 20 -20 25 -16 24 25
0 34 -2 37 -32 40 -32 3 -33 2 -33 -37z m50 9 c0 -5 -7 -10 -15 -10 -8 0 -15
5 -15 10 0 6 7 10 15 10 8 0 15 -4 15 -10z"/>
<path d="M1130 1580 c0 -39 12 -53 24 -27 5 10 7 10 12 0 3 -7 13 -13 21 -13
14 0 14 3 -2 20 -17 19 -17 21 0 40 14 16 15 20 4 20 -8 0 -20 -5 -27 -12 -9
-9 -12 -9 -12 0 0 7 -4 12 -10 12 -5 0 -10 -18 -10 -40z"/>
<path d="M1257 1613 c-13 -12 -7 -25 8 -19 18 6 18 5 5 -28 -8 -21 -6 -26 6
-26 9 0 12 5 8 12 -4 6 1 17 11 24 21 16 13 44 -13 44 -10 0 -22 -3 -25 -7z"/>
<path d="M782 1250 c0 -14 2 -19 5 -12 2 6 2 18 0 25 -3 6 -5 1 -5 -13z"/>
<path d="M720 1240 c0 -5 5 -10 10 -10 6 0 10 5 10 10 0 6 -4 10 -10 10 -5 0
-10 -4 -10 -10z"/>
<path d="M2031 1234 c0 -11 3 -14 6 -6 3 7 2 16 -1 19 -3 4 -6 -2 -5 -13z"/>
<path d="M782 1055 c0 -16 2 -22 5 -12 2 9 2 23 0 30 -3 6 -5 -1 -5 -18z"/>
<path d="M1062 1050 c0 -14 2 -19 5 -12 2 6 2 18 0 25 -3 6 -5 1 -5 -13z"/>
<path d="M1891 1044 c0 -11 3 -14 6 -6 3 7 2 16 -1 19 -3 4 -6 -2 -5 -13z"/>
</g>
</svg>
