<svg width="1076" height="767" viewBox="0 0 1076 767" fill="none" xmlns="http://www.w3.org/2000/svg">
<g clip-path="url(#clip0)">
<path d="M521.336 102.897V499.906C521.334 504.636 519.454 509.171 516.108 512.515C512.763 515.858 508.227 517.737 503.498 517.737H342.32C339.977 517.741 337.656 517.283 335.49 516.388C333.325 515.494 331.357 514.18 329.7 512.524C328.043 510.868 326.729 508.9 325.833 506.735C324.938 504.57 324.478 502.249 324.481 499.906V102.897C324.481 100.554 324.943 98.2345 325.839 96.0702C326.736 93.9059 328.05 91.9393 329.706 90.2828C331.362 88.6263 333.329 87.3124 335.493 86.4159C337.658 85.5195 339.977 85.0581 342.32 85.0582H366.443V88.1534C366.444 92.049 367.991 95.785 370.746 98.5396C373.5 101.294 377.236 102.842 381.132 102.842H463.103C466.998 102.842 470.734 101.294 473.489 98.5396C476.243 95.785 477.791 92.049 477.791 88.1534V85.0582H503.498C505.84 85.0575 508.16 85.5183 510.325 86.4146C512.49 87.3108 514.456 88.6247 516.113 90.2813C517.77 91.938 519.084 93.9048 519.98 96.0694C520.876 98.234 521.337 100.554 521.336 102.897V102.897Z" fill="#FFFF00"/>
<path d="M514.279 151.412H331.562V240.408H514.279V151.412Z" fill="#3F3D56"/>
<path d="M405.128 212.521C409.911 230.202 426.294 241.152 426.294 241.152C426.294 241.152 434.923 223.436 430.14 205.755C425.357 188.074 408.973 177.123 408.973 177.123C408.973 177.123 400.345 194.84 405.128 212.521Z" fill="white"/>
<path d="M412.157 208.721C425.281 221.498 426.884 241.138 426.884 241.138C426.884 241.138 407.208 240.064 394.083 227.287C380.958 214.511 379.355 194.87 379.355 194.87C379.355 194.87 399.032 195.945 412.157 208.721Z" fill="#FFFF00"/>
<path d="M448.641 212.521C443.858 230.202 427.475 241.152 427.475 241.152C427.475 241.152 418.846 223.436 423.629 205.755C428.413 188.074 444.796 177.123 444.796 177.123C444.796 177.123 453.424 194.84 448.641 212.521Z" fill="white"/>
<path d="M441.612 208.721C428.488 221.498 426.885 241.138 426.885 241.138C426.885 241.138 446.561 240.064 459.686 227.287C472.811 214.511 474.414 194.87 474.414 194.87C474.414 194.87 454.737 195.945 441.612 208.721Z" fill="#FFFF00"/>
<path d="M497.937 290.245H347.904V298.481H497.937V290.245Z" fill="#F0F0F0"/>
<path d="M497.937 303.514H347.904V311.75H497.937V303.514Z" fill="#F0F0F0"/>
<path d="M497.937 316.783H347.904V325.019H497.937V316.783Z" fill="#F0F0F0"/>
<path d="M497.937 330.052H347.904V338.288H497.937V330.052Z" fill="#F0F0F0"/>
<path d="M451.46 401.025L418.065 377.318L394.358 410.712L427.753 434.419L451.46 401.025Z" fill="#F0F0F0"/>
<path d="M427.451 443.029C425.582 443.029 423.755 442.475 422.201 441.436C420.647 440.398 419.435 438.922 418.72 437.195C418.005 435.468 417.817 433.568 418.182 431.734C418.547 429.901 419.447 428.217 420.769 426.895C422.09 425.574 423.774 424.674 425.608 424.309C427.441 423.944 429.341 424.131 431.068 424.847C432.795 425.562 434.271 426.773 435.31 428.328C436.348 429.882 436.902 431.709 436.902 433.578C436.899 436.084 435.903 438.486 434.131 440.258C432.359 442.03 429.957 443.026 427.451 443.029V443.029ZM427.451 425.703C425.894 425.703 424.371 426.164 423.076 427.03C421.781 427.895 420.771 429.125 420.175 430.564C419.579 432.003 419.423 433.587 419.727 435.115C420.031 436.643 420.781 438.046 421.882 439.147C422.984 440.249 424.387 440.999 425.915 441.303C427.443 441.607 429.026 441.451 430.465 440.855C431.904 440.258 433.134 439.249 434 437.954C434.865 436.659 435.327 435.136 435.327 433.578C435.325 431.49 434.494 429.488 433.018 428.012C431.541 426.535 429.539 425.705 427.451 425.703V425.703Z" fill="#3F3D56"/>
<path d="M196.855 17.8386V414.848C196.853 419.578 194.972 424.113 191.627 427.457C188.282 430.8 183.746 432.679 179.016 432.679H17.8386C15.4955 432.683 13.1747 432.224 11.0091 431.33C8.84346 430.435 6.87567 429.122 5.21849 427.466C3.56131 425.809 2.24733 423.842 1.35184 421.677C0.456351 419.512 -0.0030345 417.191 1.50841e-05 414.848V17.8386C-8.60412e-05 15.496 0.461252 13.1763 1.35769 11.012C2.25413 8.84764 3.5681 6.88109 5.22459 5.2246C6.88107 3.56811 8.84762 2.25413 11.0119 1.35769C13.1763 0.461249 15.496 -9.6242e-05 17.8386 9.43601e-07H41.9621V3.09522C41.9621 6.9908 43.5096 10.7268 46.2642 13.4814C49.0188 16.236 52.7548 17.7835 56.6504 17.7835H138.621C142.517 17.7835 146.253 16.236 149.008 13.4814C151.762 10.7268 153.31 6.99079 153.31 3.09522V9.43601e-07H179.016C181.359 -0.000761165 183.679 0.460127 185.844 1.35633C188.008 2.25254 189.975 3.56649 191.632 5.22311C193.288 6.87974 194.602 8.84655 195.498 11.0112C196.395 13.1758 196.855 15.4958 196.855 17.8386V17.8386Z" fill="#F2F2F2"/>
<path d="M176.409 216.781H18.8939V75.8048H176.409V216.781ZM20.469 215.206H174.834V77.38H20.469V215.206Z" fill="#3F3D56"/>
<path d="M20.2065 76.0051L19.1566 77.1796L175.097 216.581L176.147 215.406L20.2065 76.0051Z" fill="#3F3D56"/>
<path d="M175.098 76.0065L19.1554 215.405L20.2052 216.579L176.148 77.1809L175.098 76.0065Z" fill="#3F3D56"/>
<path d="M175.622 257.735H19.6815V259.31H175.622V257.735Z" fill="#3F3D56"/>
<path d="M175.622 271.911H19.6815V273.487H175.622V271.911Z" fill="#3F3D56"/>
<path d="M175.622 286.088H19.6815V287.663H175.622V286.088Z" fill="#3F3D56"/>
<path d="M97.6516 300.264H19.6815V301.839H97.6516V300.264Z" fill="#3F3D56"/>
<path d="M97.6516 314.44H19.6815V316.016H97.6516V314.44Z" fill="#3F3D56"/>
<path d="M845.03 17.8386V414.848C845.028 419.578 843.147 424.113 839.802 427.457C836.457 430.8 831.921 432.679 827.191 432.679H666.014C663.671 432.683 661.35 432.224 659.184 431.33C657.019 430.435 655.051 429.122 653.394 427.466C651.737 425.809 650.423 423.842 649.527 421.677C648.632 419.512 648.172 417.191 648.175 414.848V17.8386C648.175 15.496 648.637 13.1763 649.533 11.012C650.429 8.84765 651.743 6.8811 653.4 5.22461C655.056 3.56812 657.023 2.25414 659.187 1.3577C661.352 0.461256 663.671 -9.36089e-05 666.014 9.50106e-07H690.137V3.09522C690.137 6.9908 691.685 10.7268 694.439 13.4814C697.194 16.236 700.93 17.7835 704.826 17.7835H786.797C790.692 17.7835 794.428 16.236 797.183 13.4814C799.937 10.7268 801.485 6.99079 801.485 3.09522V9.50106e-07H827.191C829.534 -0.000763786 831.854 0.460128 834.019 1.35633C836.183 2.25254 838.15 3.56649 839.807 5.22311C841.464 6.87973 842.778 8.84654 843.674 11.0112C844.57 13.1758 845.031 15.4958 845.03 17.8386V17.8386Z" fill="#F2F2F2"/>
<path d="M825.372 203.392H669.432V204.967H825.372V203.392Z" fill="#3F3D56"/>
<path d="M825.372 244.346H669.432V245.921H825.372V244.346Z" fill="#3F3D56"/>
<path d="M825.372 285.3H669.432V286.875H825.372V285.3Z" fill="#3F3D56"/>
<path d="M743.242 143.599C757.381 143.599 768.844 132.136 768.844 117.997C768.844 103.857 757.381 92.3945 743.242 92.3945C729.102 92.3945 717.64 103.857 717.64 117.997C717.64 132.136 729.102 143.599 743.242 143.599Z" fill="#FFFF00"/>
<path d="M797.019 196.304H785.993V221.506H797.019V196.304Z" fill="#FFFF00"/>
<path d="M700.147 236.47H689.121V261.673H700.147V236.47Z" fill="#FFFF00"/>
<path d="M764.729 276.637H753.703V301.839H764.729V276.637Z" fill="#FFFF00"/>
<path d="M746.603 146.687C740.372 146.687 734.281 144.839 729.101 141.377C723.92 137.916 719.882 132.996 717.498 127.239C715.113 121.483 714.49 115.149 715.705 109.038C716.921 102.927 719.921 97.3133 724.327 92.9076C728.733 88.5018 734.346 85.5014 740.457 84.2859C746.568 83.0703 752.902 83.6942 758.659 86.0786C764.415 88.463 769.335 92.5008 772.797 97.6815C776.258 102.862 778.106 108.953 778.106 115.184C778.096 123.536 774.774 131.543 768.868 137.449C762.962 143.355 754.955 146.677 746.603 146.687V146.687ZM746.603 85.2556C740.684 85.2556 734.898 87.0109 729.976 90.2994C725.054 93.5879 721.218 98.262 718.953 103.731C716.688 109.199 716.095 115.217 717.25 121.022C718.405 126.828 721.255 132.16 725.441 136.346C729.626 140.531 734.959 143.382 740.764 144.536C746.57 145.691 752.587 145.099 758.056 142.833C763.524 140.568 768.199 136.732 771.487 131.811C774.776 126.889 776.531 121.103 776.531 115.184C776.522 107.249 773.366 99.6419 767.755 94.0313C762.145 88.4207 754.538 85.2647 746.603 85.2557V85.2556Z" fill="#3F3D56"/>
<path d="M218.134 208.269L216.592 209.542L279.789 286.08L281.331 284.807L218.134 208.269Z" fill="#3F3D56"/>
<path d="M288.245 294.751C283.004 291.713 275.744 288.569 270.026 287.625L279.551 284.222L284.694 275.514C284.538 281.307 286.252 289.031 288.245 294.751Z" fill="#3F3D56"/>
<path d="M626.123 208.261L562.943 284.814L564.486 286.087L627.666 209.535L626.123 208.261Z" fill="#3F3D56"/>
<path d="M556.021 294.751C558.012 289.03 559.726 281.306 559.571 275.513L564.715 284.222L574.238 287.624C568.52 288.567 561.261 291.712 556.021 294.751Z" fill="#3F3D56"/>
</g>
<defs>
<clipPath id="clip0">
<rect width="1075.03" height="766.356" fill="white"/>
</clipPath>
</defs>
</svg>
